<?xml version="1.0" encoding="UTF-8"?>
<svg id="Layer_1" data-name="Layer 1" xmlns="http://www.w3.org/2000/svg" viewBox="0 0 275.87 358.19">
  <defs>
    <style>
      .cls-1 {
        fill:rgb(137, 196, 186);
      }
    </style>
  </defs>
  <path class="cls-1" d="M52.71,317.35c-1.57-6.13-2.18-12.51-1.94-18.65.4-10.38,5.57-24.53,14.9-30.21,3.2-1.95,5.78.83,7.41,3.39,1.66,2.6,3.7,5.67,3.92,8.93.19,2.83-1.44,4.9-2.84,7.17-7.25,11.8-7.07,29.47,3.48,39.41.76.72,1.57,1.38,2.42,1.98,5.42,3.84,11.76,6.55,19.03,8.13,7.27,1.57,14.55,2.3,21.84,2.18,7.29-.12,13.65-.61,19.06-1.46,6.51-.95,13.8-2.19,21.85-3.73,8.05-1.54,15.07-3.09,21.05-4.65,5.27-1.38,8.99-2.63,11.14-3.75-6.29-2.49-12.39-5.36-18.31-8.6-5.92-3.24-11.13-6.3-15.64-9.16-4.51-2.86-7.78-4.97-9.82-6.31-3.46-2.47-7.17-5.5-11.11-9.07-3.94-3.58-7.49-7.44-10.63-11.59-3.16-4.15-5.3-8.43-6.45-12.83-1.7-6.51-1.7-12.99,0-19.44,1.69-6.46,4.82-12.11,9.38-16.96,4.55-4.85,10.17-8.15,16.86-9.9,12.13-3.17,24.82-3.85,38.06-2.05,13.24,1.8,25.97,5.75,38.18,11.86,12.21,6.11,22.76,14.15,31.66,24.13,8.9,9.98,15.07,21.56,18.51,34.75,1.47,5.63,1.55,10.96.24,16-1.32,5.04-4.08,8.11-8.3,9.21-1.76.46-3.88.26-6.36-.59-2.48-.86-3.99-2.34-4.54-4.45-.23-.88-.22-1.91.03-3.11.68-2.43,1.07-5.07,1.17-7.91.1-2.84-.24-5.76-1.02-8.75-.78-2.99-2.11-5.93-3.99-8.82-4.54-8.02-10.38-15.09-17.51-21.21-7.14-6.12-15.06-11.1-23.76-14.93-8.71-3.83-17.6-6.25-26.69-7.26-9.09-1-17.86-.41-26.3,1.8-7.04,1.84-12.44,4.33-16.22,7.48-3.78,3.15-4.82,7.97-3.12,14.48,1.1,4.22,3.56,8.23,7.37,12.02,3.81,3.8,8.08,7.19,12.8,10.18,4.73,2.99,8.9,5.33,12.54,7.01,5.19,2.59,10.85,5.24,17.01,7.96,6.15,2.71,12.13,5.28,17.94,7.71,5.04,2.11,10.12,4.13,15.26,5.98,4.27,1.54,9.02,2.65,12.33,5.97,3.43,3.44,4.04,8.31,1.17,12.32-1.74,2.44-4.33,4.15-7.02,5.47-5.42,2.66-10.31,3.91-16.74,5.45-11.6,2.78-23.2,5.52-34.85,8.09-9.32,2.06-19.11,3.81-29.34,5.27-10.23,1.45-20.31,2.07-30.23,1.84s-19.26-1.64-28.01-4.23c-8.75-2.6-16.25-6.84-22.48-12.72-6.72-6.34-11.08-14.82-13.38-23.84Z"/>
  <path class="cls-1" d="M119.46,283.29c4.17,4.49-1.04,10-4.29,13.12-9.53,9.16-20.11,17.26-30.53,25.37-6.69,5.21-12.99,10.55-18.89,16.02-2.85,2.65-5.54,5.46-8.07,8.45-2.82,3.34-5.25,7.08-8.28,10.23-.54.56-1.13,1.12-1.87,1.36-1.22.4-2.56-.15-3.56-.95-3.21-2.57-5.72-5.96-4.3-10.24,1.09-3.29,2.82-6.32,4.73-9.2.69-1.04,4.35-7.59,5.44-7.65-16.25.91-46.07-8.95-49.51-27.47-.71-3.82-.18-6.56,1.59-8.2,2.06-1.92,4.18-2.69,6.35-2.32,2.17.36,4.03,1.38,5.57,3.05,5.95,6.4,11.74,13.35,19.31,17.91,6.47,3.9,14.45,5.4,21.93,4.94,3.59-.22,7.61-.81,10.86-2.44,3.7-1.85,6.77-5.08,9.92-7.7,3.72-3.09,6.61-5.49,8.67-7.22,2.16-1.82,4.41-3.73,6.76-5.73,3.82-3.25,7.44-6.8,11.62-9.59,4.93-3.3,11.73-6.95,16.57-1.74Z"/>
  <path class="cls-1" d="M224.06,182.04c-.15-4.48-.76-9.72-1.86-15.75-1.09-6.02-3.2-11.91-6.31-17.66-5.97-11.03-13.49-20.33-22.57-27.93-25.03-20.95-62.25-27.07-91.91-12.88-22.35,10.69-34.59,35.62-28.95,59.83,1.73,7.41,5.24,14.31,9.95,20.27,13.37,16.94,34.55,24.9,54.75,30.3.45.12,4.63,1.24,4.34,1.55-.43.47-1.53,1.09-2.19,1.48-6.08,3.54-12.27,6.81-18.5,10.07-12.5,6.54-25.71,12.58-38.03,19.77-3.18,2.14-3.3,3.6-3.19,5.91.12,2.31,1.17,5.31,3.16,8.99.7,1.28,1.5,3.05,3.11,3.26,1.04.14,2.07-.23,3.03-.63,10.6-4.39,126.65-56.37,158.97-70.01,7.66-3.23-6.91-8.84-16.3-12.91-3.59-1.56-7.43-2.61-7.5-3.64ZM204.37,176.11c-.16,7.75-3.01,15.12-10.14,18.98-4.95,2.68-11.22,4.27-18.81,4.76-7.59.5-15.73.05-24.44-1.33-8.7-1.38-17.17-3.57-25.4-6.55-8.23-2.98-15.97-5.97-21.94-10.75-16.84-13.49-15.22-37.74.36-51.54,14.51-12.87,35.88-10.8,52.99-5.1,9.33,3.11,17.79,7.47,25.37,13.07,7.59,5.61,13.41,12.17,17.48,19.68,2.84,5.24,4.68,12.14,4.54,18.77Z"/>
</svg>