<?xml version="1.0" encoding="UTF-8"?>
<svg id="Layer_1" xmlns="http://www.w3.org/2000/svg" version="1.1" viewBox="0 0 841.89 595.28">
  <!-- Generator: Adobe Illustrator 29.1.0, SVG Export Plug-In . SVG Version: 2.1.0 Build 142)  -->
  <defs>
    <style>
      .st0 {
        stroke-width: 10px;
      }

      .st0, .st1 {
        fill: none;
        stroke:rgb(0, 0, 0);
        stroke-miterlimit: 10;
      }

      .st1 {
        stroke-width: 20px;
      }
    </style>
  </defs>
  <line class="st0" x1="166.37" y1="282.13" x2="329.99" y2="282.13"/>
  <line class="st0" x1="635.43" y1="319.96" x2="764.09" y2="319.96"/>
  <path class="st1" d="M476.62,411.23c27.09-2.86,53.54-9.36,72.6-26.82.47-.43.94-.87,1.4-1.31,21.34-20.63,25.47-51.72,18.89-77.54-4.76-18.66-16.79-36.31-34.73-48.41-19.91-13.44-47.85-16.19-72.6-17.87-46.61-3.16-92.99-.52-139.63-.52,0,0-.15,0-.15,0,0,0,0,174.47,0,174.47,9.69,0,92.02,1.5,124.83.04,9.67-.43,19.57-.99,29.39-2.03Z"/>
  <circle class="st0" cx="609.67" cy="321.82" r="29.93"/>
  <line class="st0" x1="166.37" y1="366.13" x2="329.99" y2="366.13"/>
</svg>